<?xml version="1.0" standalone="no"?>
<!DOCTYPE svg PUBLIC "-//W3C//DTD SVG 20010904//EN"
 "http://www.w3.org/TR/2001/REC-SVG-20010904/DTD/svg10.dtd">
<svg version="1.0" xmlns="http://www.w3.org/2000/svg"
 width="300.000000pt" height="300.000000pt" viewBox="0 0 300.000000 300.000000"
 preserveAspectRatio="xMidYMid meet">
<metadata>
Created by potrace 1.16, written by Peter Selinger 2001-2019
</metadata>
<g transform="translate(0.000000,300.000000) scale(0.100000,-0.100000)"
fill="#3B3B3B" stroke="none">
<path d="M983 2731 c-85 -32 -136 -73 -172 -140 -35 -67 -50 -162 -33 -221 8
-31 5 -43 -30 -107 -117 -216 -172 -473 -134 -623 39 -153 139 -291 266 -370
11 -7 6 -25 -27 -97 -42 -90 -67 -166 -78 -240 -6 -37 -12 -44 -63 -75 -71
-42 -126 -120 -149 -212 -15 -62 -15 -70 1 -129 23 -84 52 -132 107 -179 84
-71 228 -99 327 -64 28 10 51 12 78 5 60 -13 1277 -12 1308 2 40 19 56 66 56
166 0 138 -33 220 -130 326 -45 49 -53 64 -74 150 -13 52 -43 136 -67 186 -23
50 -40 92 -38 94 2 1 30 15 61 30 86 44 171 129 210 212 27 59 33 84 36 161 5
113 -10 171 -82 314 -30 58 -68 150 -86 205 -73 221 -150 334 -295 430 -153
102 -274 138 -465 139 -69 0 -149 -5 -178 -12 -53 -12 -56 -11 -125 23 -90 44
-153 52 -224 26z m720 -192 c110 -31 203 -84 277 -159 80 -80 106 -128 166
-301 25 -74 68 -177 96 -229 27 -52 51 -112 55 -132 l6 -38 -32 11 c-24 8 -35
8 -46 -1 -27 -23 -17 -56 31 -99 44 -41 45 -44 34 -76 -44 -133 -205 -219
-462 -245 -163 -17 -571 -8 -658 14 -170 43 -327 157 -391 282 -31 61 -34 78
-37 165 -3 81 1 117 23 206 15 59 40 137 56 171 l29 64 54 -59 c30 -32 78 -72
108 -88 46 -26 63 -30 133 -30 67 0 88 5 131 27 152 80 205 259 129 439 -43
104 -44 97 16 102 88 7 205 -3 282 -24z m377 -1441 c0 -2 14 -37 31 -78 32
-80 59 -190 59 -245 l0 -34 -42 19 c-68 30 -133 34 -255 16 -147 -22 -291 -60
-388 -103 -98 -43 -129 -51 -123 -32 18 55 316 157 534 181 l100 12 11 75 c11
80 48 191 64 191 5 0 9 -1 9 -2z"/>
<path d="M1831 2101 c-53 -28 -119 -99 -159 -171 -33 -59 -37 -72 -37 -141 0
-67 3 -81 30 -125 60 -96 184 -140 272 -96 22 12 60 43 85 71 60 66 88 142 88
236 0 90 -34 163 -99 212 -36 28 -51 33 -94 33 -30 -1 -66 -8 -86 -19z m170
-157 c37 -19 59 -67 59 -131 0 -120 -107 -173 -167 -83 -18 26 -23 47 -23 97
0 61 2 67 34 99 38 38 53 41 97 18z"/>
</g>
</svg>
